<svg viewBox="0 0 457.432 120.586">
  <path fill="#FFF" d="M.059 80.067c-1.296 28.201 18.801 40.52 46.192 40.52 41.006 0 44.248-25.123 44.248-33.063 0-18.963-13.613-26.097-29.983-30.471l-28.202-6.969c-9.4-2.269-17.505-6.808-17.505-17.666 0-17.181 13.938-23.016 29.013-23.016 16.37 0 30.957 8.914 31.604 26.581h11.021C86.609 12.317 66.512 0 43.659 0 11.081 0 3.787 21.232 3.787 32.578c0 17.99 12.48 24.474 26.095 27.878l25.771 6.32c10.697 2.594 23.826 7.779 23.826 20.908 0 16.857-18.479 23.502-30.633 23.502-21.071 0-38.251-7.293-37.766-31.119H.059zM256.592 79.095c.812-23.501-9.887-47.003-36.792-47.003-26.58 0-37.764 22.205-37.764 44.247 0 23.826 11.185 44.248 37.764 44.248 21.069 0 32.094-11.021 36.469-29.983h-10.211C242.818 103.248 234.711 112 219.8 112c-19.61 0-27.391-17.992-27.553-32.902l64.345-.003zm-64.345-8.591c1.621-15.235 10.859-29.821 27.553-29.821 16.532 0 26.096 14.424 26.581 29.821h-54.134zM404.732 79.095c.811-23.501-9.887-47.003-36.793-47.003-26.582 0-37.765 22.205-37.765 44.247 0 23.826 11.183 44.248 37.765 44.248 21.071 0 32.092-11.021 36.469-29.983h-10.211C390.957 103.248 382.851 112 367.939 112c-19.611 0-27.392-17.992-27.554-32.902l64.347-.003zm-64.345-8.591c1.618-15.235 10.858-29.821 27.553-29.821 16.533 0 26.096 14.424 26.582 29.821h-54.135zM416.104 118.295h10.211V73.726c0-17.342 12.641-30.956 31.116-29.984V33.53c-15.071-.648-26.418 7.294-31.604 20.747h-.324v-19.61h-9.399v83.628zM310.758 2.617h-10.211v31.906h-14.586v8.59h14.586v57.214c-.162 14.264 4.539 18.801 18.154 18.801 3.078 0 5.998-.323 9.074-.323v-8.75c-2.916.321-5.834.483-8.75.483-7.295-.483-8.269-4.377-8.269-11.021V43.113h17.019v-8.59h-17.019l.002-31.906zM267.977 2.617h10.211v115.678h-10.211zM112.279 2.617v49.422l26.156-22.805 32.756 29.642v59.419H160.88l.001-55.812-23.034-20.758-25.568 22.24v54.328h-10.211V2.617z"/>
</svg>
