<svg xmlns="http://www.w3.org/2000/svg" viewBox="0 0 200 200"><path fill="#fff" d="M91.2 46.1a3.7 3.7 0 0 0-3.2 3.6v10a47.8 47.8 0 0 0-19.3 10l-4-4 3.7-3.8c.6-.7 1-1.6 1-2.6 0-2-1.6-3.6-3.5-3.6-1 0-1.9.4-2.5 1L51 69a3.7 3.7 0 0 0 0 5 3.7 3.7 0 0 0 5.1 0l3.4-3.3 4 4A48 48 0 1 0 146 119c.6-1.8-.6-3.9-2.4-4.4-1.8-.5-4 .7-4.4 2.5a40.7 40.7 0 1 1 1.5-11c0 1.9 1.7 3.6 3.6 3.6 1.9 0 3.6-1.7 3.6-3.6 0-12-4.5-22.8-11.7-31.2l4-4 3.5 3.3a3.7 3.7 0 0 0 5.2.2c1.4-1.4 1.3-4-.2-5.2l-12.2-12.2a3.6 3.6 0 0 0-2.5-1.2c-2 0-3.6 1.6-3.6 3.6 0 1 .3 1.8.9 2.4l3.9 4-4 4c-5.5-4.7-12.1-8.2-19.4-10l.1-10c0-2.6-1-3.6-3.6-3.6H91.2zm4 7.2h9.5v5a48.3 48.3 0 0 0-9.5 0v-5zm4.7 19a3.7 3.7 0 0 0-3.6 3.7v19.8a10.8 10.8 0 0 0-7.1 10.2c0 5.9 4.8 10.8 10.8 10.8 5.9 0 10.7-4.9 10.7-10.8 0-4.7-3-8.7-7.2-10.1V76c0-2-1.7-3.7-3.6-3.7zm0 30.1c2 0 3.6 1.6 3.6 3.6s-1.5 3.6-3.5 3.6-3.6-1.6-3.6-3.6 1.5-3.6 3.6-3.6z"></path></svg>