<svg xmlns="http://www.w3.org/2000/svg" viewBox="-277.5 440.5 40 40"><g fill="#fff"><path d="M-251.939 453.09l-2.471-2.469h-6.177l-2.47 2.469h-4.318c-1.363 0-2.47 1.105-2.47 2.473v12.344c0 1.361 1.106 2.473 2.47 2.473h19.75c1.362 0 2.471-1.107 2.471-2.473v-12.344c0-1.363-1.105-2.473-2.471-2.473h-4.314zm-5.56 14.814c-3.411 0-6.176-2.764-6.176-6.174s2.766-6.178 6.176-6.178c3.411 0 6.176 2.768 6.176 6.178.002 3.411-2.765 6.174-6.176 6.174z"></path><circle cx="-257.499" cy="461.736" r="3.707"></circle></g></svg>