<svg xmlns="http://www.w3.org/2000/svg" version="1" viewBox="0 841 200 200"><path fill="#fff" d="M156 980l-8-69c-1-2-3-4-5-4h-21v-8c0-13-10-22-22-22s-22 9-22 22v8H57c-2 0-5 2-5 4l-8 69c0 13 9 22 22 22h69c12 0 22-10 22-22h-1zm-69-81c0-7 6-13 13-13s13 6 13 13v8H87v-8zm47 94H65c-6 0-12-5-12-12l8-64h17v11c-3 2-7 5-7 10 0 6 5 11 11 11s11-5 11-11c0-4-3-8-6-10v-11h26v11c-5 2-7 6-7 10a11 11 0 1 0 22 0c0-4-3-8-6-10v-11h17l8 64c0 7-6 12-13 12zm-48-55c0 2-2 3-3 3-2 0-4-1-4-3s2-3 4-3c1 0 3 1 3 3zm34 0c0 2-1 3-3 3s-3-1-3-3 1-3 3-3 3 1 3 3z"></path></svg>