<svg xmlns="http://www.w3.org/2000/svg" viewBox="0 0 200 200"><path fill="#FFF" d="M149.3 55.7h-17.7a26.4 26.4 0 0 0-49.7-10.4c-4.4 2.4-8.2 6-10.8 10.4h-9.8c-.5 0-1 .2-1.3.5L48.7 67.5c-.3.3-.5.7-.5 1.2v93.6c0 1 .8 1.8 1.7 1.8h88c.6 0 1-.2 1.3-.5l11.4-11.3c.3-.3.5-.8.5-1.2V57.4c0-1-.8-1.7-1.8-1.7zm-1.7 94.6l-8.5 8.5V69.2l8.5-8.5v89.6zm-16-91h14.5l-8.5 8.4h-18a27 27 0 0 0-1.9-8.5h14zM116.8 57a25.7 25.7 0 0 0-18.2-13.6A15.5 15.5 0 0 1 120.8 57h-4zm-11.5-22.4c12.5 0 22.6 10 22.8 22.4h-5.2a17.6 17.6 0 0 0-27.8-14 25.8 25.8 0 0 0-8.3 1c4.3-5.9 11-9.4 18.5-9.4zM71 63.8l.1-.5.2-.5.1-.5v-.1l.2-.4v-.2l.1-.4.2-.5.2-.5v-.1l.2-.4v-.1l.2-.4c2.7-6 7.7-10.6 14-12.7l.4-.2.5-.1a23 23 0 0 1 2.3-.6h.5l.5-.1a23.4 23.4 0 0 1 5-.2h1l.5.1h.2l.6.2.7.1h.2l.5.1.2.1.5.1h.2a35.9 35.9 0 0 1 1.2.4l.2.1.5.2h.1a16.6 16.6 0 0 1 1.3.5l.1.1.5.2.1.1.5.2.1.1.6.3h.1c.2.2.3.3.5.3l.1.1.4.3h.2l1 .8.2.1.4.3.1.1.5.4.5.5h.1l.4.4.2.1c0 .2.2.3.3.4h.1l1 1v.2l.4.3v.2l.5.4a17.5 17.5 0 0 1 .8 1.1v.2a25.9 25.9 0 0 1 1.1 1.7 25.4 25.4 0 0 1 1.3 2.6l.2.5.2.5.2.5.2.5.1.5.2.5v.1l.1.5.1.5c.3 1.3.5 2.6.5 3.9h-5.2V66.4l-.3-1.6a10.4 10.4 0 0 0-.5-1.7l-.1-.5-.2-.5-.2-.5-.2-.5-.1-.1-.2-.4-.2-.5-.3-.5v-.1l-.2-.3-1.6-2.2-.3-.3v-.1a30.8 30.8 0 0 0-.3-.3l-.4-.4-.3-.3-.1-.1-.2-.2-.2-.2-.2-.2h-.1l-.3-.3-.4-.4-.4-.3-.4-.2-.1-.1-.3-.2h-.1l-.3-.3h-.1l-.3-.2h-.1c-.1-.2-.3-.2-.4-.3l-.4-.2h-.1l-.3-.2-.2-.1-.3-.1-.1-.1-.3-.1-.2-.1-.3-.1h-.1l-.4-.2a15.9 15.9 0 0 0-1-.3H99l-.3-.2h-.5l-.2-.1-.3-.1h-.1l-.5-.1h-.5l-.1-.1a16.9 16.9 0 0 0-.5 0l-.3-.1H94.5a20.4 20.4 0 0 0-1.1 0h-.7a20.6 20.6 0 0 0-3.8.6l-.4.2-.5.1-1 .4-.4.2h-.1l-.3.2H86l-.4.2-.4.2-1 .5-.3.3h-.1a9 9 0 0 0-.3.3h-.1l-.3.2-.1.1-.3.2a17.6 17.6 0 0 0-4 4.4l-.3.3v.1l-.3.5-.3.5-.3.6-.2.5-.3.6-.2.5-.2.6-.2.6-.2.5v.1l-.3 1.2-.2 1.8v.6h-5.3c0-1.3.3-2.5.5-3.8zm15.5-4.6h20.6c1.7 2.4 2.8 5.3 3 8.4H77.8a16 16 0 0 1 3-8.4h5.7zm-3.8-2c1.6-1.6 3.4-2.8 5.5-3.6-.3 1.1-.4 2.3-.4 3.5h-5zm7.2 0c0-1.6.2-3 .7-4.3a16.2 16.2 0 0 1 14.6 4.2H90zm-27 2h7.3c-1 2.6-1.7 5.5-1.8 8.4h-5.5v-8.4zm-2 1.2v7.3h-7.4l7.3-7.3zm-9.2 9.4H137v90.8H51.7V69.8z"></path></svg>