<svg xmlns="http://www.w3.org/2000/svg" viewBox="0 0 200 200"><path fill="#fff" d="M162.2 126.9c-.2-1.6-1.6-2.6-3.4-2.4a128 128 0 0 1-16.4 1.8c-12 .3-23.9 1.5-35.9.4-7-.7-14-1.1-21-1.7-11.2-.8-21.9-4-33-5-5.7-.6-11.4-2.3-17-3.5-2-.4-3.2.2-3.6 1.8-.4 1.6.6 3 2.3 3.4 5.8 1.2 11.5 2.5 17.3 3.6.9.2 1.2.5 1.4 1.3 2 9.5 4.2 18.9 6.3 28.3.3 1.2 1 2.3 2.3 2.5 1.4.3 2.3-.5 3-1.7L79 132.3c1.6-2.6 1.6-2.6 4.6-2.2.8.2 1.2.5 1.5 1.3 3 9.4 6.2 18.7 9.3 28 .4 1.1.8 2.1 2.1 2.2 1.3.1 2.2-.6 2.8-1.8l.6-1.1 12.2-25.3c.4-.7.7-1 1.6-1 1.3.1 2.6.2 3.8.1 1 0 1.4.3 1.8 1.1 1.2 3 2.6 5.9 4 8.8l8.1 17.6a3.7 3.7 0 0 0 2.6 2.2c1.3 0 2.4-1 3-2.6l9.6-27c.2-.7.4-1.2 1.2-1.3 4-.4 7.8-1 11.7-1.5 1.8-.2 2.8-1.4 2.7-2.9zm-96.5 11.4l-1.5 1.8-.5-2.3-2.2-1 2-1.1.2-2.4 1.8 1.6 2.3-.6-1 2.2 1.3 2-2.4-.2zm68 4.7l-1.5 1.8-.5-2.3-2.2-1 2-1.2.3-2.3 1.7 1.6 2.4-.6-1 2.2 1.3 2-2.4-.2zm-87.1-35c.7 0 1.4-.3 2-.7L64 99 79.4 111l6.3 5c.8.6 1.8 1 2.8.5a2.8 2.8 0 0 0 1.6-3l-.1-.8c-1.3-8.9-2.5-17.7-3.9-26.5-.2-1.8 1.2-1.9 2-2.7.7-.7 1.2-.3 1.9.1l22.5 14.2c1.1.7 2.2 1.1 3.4.3 1.1-.9 1-2 .7-3.2l-6-26.5c-.2-.9 0-1.4.7-2 1-.6 1.9-1.3 2.8-2.1.6-.6 1.1-.7 2-.3 4.5 2.3 9.2 4.5 13.8 6.7l10 4.8c1 .5 2.1.5 3-.3.9-.7 1-1.8.6-3L135 46.6c-.3-.9-.1-1.4.5-2l7.4-8.4c1-1.3 1-2.9-.1-3.7-1.2-1-2.8-.9-3.9.4a229 229 0 0 1-33.3 31.6 399 399 0 0 1-44.4 30.2c-4.4 2.6-9 5-13.5 7.5l-2.4 1.3c-1 .6-1.3 1.6-1 2.8.2 1.2 1.2 1.7 2.3 1.7zm81.6-48.5l.2-2.4 1.8 1.6 2.3-.6-1 2.2 1.3 2-2.4-.2L129 64l-.5-2.4-2.3-.9 2.1-1.2zM77.5 99l.2-2.4 1.8 1.6 2.3-.5-1 2.2 1.3 2-2.4-.2-1.5 1.8-.5-2.4-2.2-.9 2-1.2z"></path></svg>