<svg xmlns="http://www.w3.org/2000/svg" viewBox="0 0 200 200"><path fill="#fff" d="M167 85.6c-2.3-5.2-19-25-22.3-29C135.8 46.2 117 42 116.1 42H115.7 115.2a1.6 1.6 0 0 0-.3 0h-.1l-.1.1h-.2l-.1.2c-3.2 2.2-8.5 3.5-14.4 3.5A26.4 26.4 0 0 1 85.5 42h-.2V42H85l-.2-.1h-.4-.1-.1-.4c-.8.1-19.7 4.2-28.6 14.8A275 275 0 0 0 33 85.6c-.4.8-.2 1.8.4 2.4l1.8 1.8 1.6 1.6.3.4a132.5 132.5 0 0 0 18.9 16.7 2 2 0 0 0 .3 0H56.7a2.9 2.9 0 0 0 .6 0v-.1l.3-.1.2-.2h.1l.2-.2 1.6-1.6V156c0 1.2 1 2.2 2.2 2.2h76.2c1.2 0 2.2-1 2.2-2.2v-49.7l1.6 1.6.2.2.3.2a1.9 1.9 0 0 0 .5.2h1l.3-.1A181 181 0 0 0 166.5 88c.6-.6.8-1.6.5-2.4zM87.1 48l.9.3h.2l.6.3h.3l.7.2.2.1 2 .4h.1l2 .4h.1l2.1.2h.2l.9.1H98.9a50 50 0 0 0 3.3 0H103.6l1-.2h1l.4-.1.7-.1h.3l.7-.2h.3l1-.3.8-.2h.4l.5-.3h.4l.6-.2a10.3 10.3 0 0 0 1-.4h.2l.5-.3c-.1 2.2-.8 5-2.7 7.3-2.3 2.6-5.9 3.9-10.7 3.9-4.9 0-8.5-1.3-10.7-4-2-2.2-2.6-5-2.8-7.2a20.6 20.6 0 0 0 .7.3zM86 57.8c3.1 3.7 7.9 5.5 14.1 5.5s11-1.8 14-5.5c3.1-3.5 3.8-8 4-10.9a56 56 0 0 1 21.5 10.7c-3.6 3.3-3.6 9.3-3.6 9.6v68.9H64V67.2c0-.3 0-6.3-3.6-9.6A56 56 0 0 1 82 46.9c0 3 .8 7.4 3.8 11zm-21.8 96v-4.5H136v4.5H64z"></path></svg>